HIERARCHY
ROOT Hips
{
  OFFSET 363.916 89.4436 202.859
  CHANNELS 6 Xposition Yposition Zposition Zrotation Xrotation Yrotation
  JOINT RightUpLeg
  {
    OFFSET -9.22681 -1.41939 0.059526
    CHANNELS 3 Zrotation Xrotation Yrotation
    JOINT RightLeg
    {
      OFFSET 0.076897 -41.8891 0.179098
      CHANNELS 3 Zrotation Xrotation Yrotation
      JOINT RightFoot
      {
        OFFSET -0.0130714 -43.0092 0.527065
        CHANNELS 3 Zrotation Xrotation Yrotation
        End Site
        {
          OFFSET 0 -7.69 17.5
        }
      }
    }
  }
  JOINT LeftUpLeg
  {
    OFFSET 9.19333 -1.7604 -0.077889
    CHANNELS 3 Zrotation Xrotation Yrotation
    JOINT LeftLeg
    {
      OFFSET -0.0291634 -41.859 -0.15197
      CHANNELS 3 Zrotation Xrotation Yrotation
      JOINT LeftFoot
      {
        OFFSET 0.141288 -40.5593 0.458407
        CHANNELS 3 Zrotation Xrotation Yrotation
        End Site
        {
          OFFSET 0 -7.69 17.5
        }
      }
    }
  }
  JOINT Spine
  {
    OFFSET 0.215607 14.2961 0.04713
    CHANNELS 3 Zrotation Xrotation Yrotation
    JOINT Spine1
    {
      OFFSET 0.127345 9.70675 0.00151561
      CHANNELS 3 Zrotation Xrotation Yrotation
      JOINT Spine2
      {
        OFFSET 0.0493166 10.1169 -0.00299987
        CHANNELS 3 Zrotation Xrotation Yrotation
        JOINT Spine3
        {
          OFFSET 0.0599611 9.70888 0.0197622
          CHANNELS 3 Zrotation Xrotation Yrotation
          JOINT Neck
          {
            OFFSET 0.305156 10.372 0.0704915
            CHANNELS 3 Zrotation Xrotation Yrotation
            JOINT Head
            {
              OFFSET 0.288394 9.47974 0.0406202
              CHANNELS 3 Zrotation Xrotation Yrotation
              End Site
              {
                OFFSET 0 15.95 0
              }
            }
          }
          JOINT RightShoulder
          {
            OFFSET -3.14873 6.92098 0.0285763
            CHANNELS 3 Zrotation Xrotation Yrotation
            JOINT RightArm
            {
              OFFSET -12.7049 -0.00288304 0.0369593
              CHANNELS 3 Zrotation Xrotation Yrotation
              JOINT RightForeArm
              {
                OFFSET -26.4954 -0.160471 0.0134548
                CHANNELS 3 Zrotation Xrotation Yrotation
                JOINT RightHand
                {
                  OFFSET -26.0026 -0.0211725 -0.0218708
                  CHANNELS 3 Zrotation Xrotation Yrotation
                  JOINT RightHandThumb1
                  {
                    OFFSET -2.48905 0.190105 3.12053
                    CHANNELS 3 Zrotation Xrotation Yrotation
                    JOINT RightHandThumb2
                    {
                      OFFSET -3.68274 0 0
                      CHANNELS 3 Zrotation Xrotation Yrotation
                      JOINT RightHandThumb3
                      {
                        OFFSET -2.55832 0 0
                        CHANNELS 3 Zrotation Xrotation Yrotation
                        End Site
                        {
                          OFFSET -2.194 0 0
                        }
                      }
                    }
                  }
                  JOINT RightInHandIndex
                  {
                    OFFSET -3.22368 0.508421 1.97842
                    CHANNELS 3 Zrotation Xrotation Yrotation
                    JOINT RightHandIndex1
                    {
                      OFFSET -5.21684 -0.091368 0.999158
                      CHANNELS 3 Zrotation Xrotation Yrotation
                      JOINT RightHandIndex2
                      {
                        OFFSET -3.61937 0 0
                        CHANNELS 3 Zrotation Xrotation Yrotation
                        JOINT RightHandIndex3
                        {
                          OFFSET -2.0521 0 0
                          CHANNELS 3 Zrotation Xrotation Yrotation
                          End Site
                          {
                            OFFSET -1.805 0 0
                          }
                        }
                      }
                    }
                  }
                  JOINT RightInHandMiddle
                  {
                    OFFSET -3.38211 0.517263 0.756737
                    CHANNELS 3 Zrotation Xrotation Yrotation
                    JOINT RightHandMiddle1
                    {
                      OFFSET -5.17411 -0.084 0.313895
                      CHANNELS 3 Zrotation Xrotation Yrotation
                      JOINT RightHandMiddle2
                      {
                        OFFSET -3.94947 0 0
                        CHANNELS 3 Zrotation Xrotation Yrotation
                        JOINT RightHandMiddle3
                        {
                          OFFSET -2.47579 0 0
                          CHANNELS 3 Zrotation Xrotation Yrotation
                          End Site
                          {
                            OFFSET -1.975 0 0
                          }
                        }
                      }
                    }
                  }
                  JOINT RightInHandRing
                  {
                    OFFSET -3.36516 0.537895 -0.128947
                    CHANNELS 3 Zrotation Xrotation Yrotation
                    JOINT RightHandRing1
                    {
                      OFFSET -4.63474 -0.022105 -0.478947
                      CHANNELS 3 Zrotation Xrotation Yrotation
                      JOINT RightHandRing2
                      {
                        OFFSET -3.44238 0 0
                        CHANNELS 3 Zrotation Xrotation Yrotation
                        JOINT RightHandRing3
                        {
                          OFFSET -2.3881 0 0
                          CHANNELS 3 Zrotation Xrotation Yrotation
                          End Site
                          {
                            OFFSET -1.857 0 0
                          }
                        }
                      }
                    }
                  }
                  JOINT RightInHandPinky
                  {
                    OFFSET -3.16105 0.469368 -1.20179
                    CHANNELS 3 Zrotation Xrotation Yrotation
                    JOINT RightHandPinky1
                    {
                      OFFSET -4.14105 -0.022105 -1.09053
                      CHANNELS 3 Zrotation Xrotation Yrotation
                      JOINT RightHandPinky2
                      {
                        OFFSET -2.75653 0 0
                        CHANNELS 3 Zrotation Xrotation Yrotation
                        JOINT RightHandPinky3
                        {
                          OFFSET -1.74189 0 0
                          CHANNELS 3 Zrotation Xrotation Yrotation
                          End Site
                          {
                            OFFSET -1.645 0 0
                          }
                        }
                      }
                    }
                  }
                }
              }
            }
          }
          JOINT LeftShoulder
          {
            OFFSET 3.26342 6.92519 -0.0174379
            CHANNELS 3 Zrotation Xrotation Yrotation
            JOINT LeftArm
            {
              OFFSET 12.8742 -0.0269705 -0.0666419
              CHANNELS 3 Zrotation Xrotation Yrotation
              JOINT LeftForeArm
              {
                OFFSET 26.5114 0.000826062 -0.052783
                CHANNELS 3 Zrotation Xrotation Yrotation
                JOINT LeftHand
                {
                  OFFSET 25.9941 -0.0689373 0.00603348
                  CHANNELS 3 Zrotation Xrotation Yrotation
                  JOINT LeftHandThumb1
                  {
                    OFFSET 2.48905 0.190105 3.12053
                    CHANNELS 3 Zrotation Xrotation Yrotation
                    JOINT LeftHandThumb2
                    {
                      OFFSET 3.68274 0 0
                      CHANNELS 3 Zrotation Xrotation Yrotation
                      JOINT LeftHandThumb3
                      {
                        OFFSET 2.55832 0 0
                        CHANNELS 3 Zrotation Xrotation Yrotation
                        End Site
                        {
                          OFFSET 2.194 0 0
                        }
                      }
                    }
                  }
                  JOINT LeftInHandIndex
                  {
                    OFFSET 3.22368 0.508421 1.97842
                    CHANNELS 3 Zrotation Xrotation Yrotation
                    JOINT LeftHandIndex1
                    {
                      OFFSET 5.21684 -0.091368 0.999158
                      CHANNELS 3 Zrotation Xrotation Yrotation
                      JOINT LeftHandIndex2
                      {
                        OFFSET 3.61937 0 0
                        CHANNELS 3 Zrotation Xrotation Yrotation
                        JOINT LeftHandIndex3
                        {
                          OFFSET 2.0521 0 0
                          CHANNELS 3 Zrotation Xrotation Yrotation
                          End Site
                          {
                            OFFSET 1.805 0 0
                          }
                        }
                      }
                    }
                  }
                  JOINT LeftInHandMiddle
                  {
                    OFFSET 3.38211 0.517263 0.756737
                    CHANNELS 3 Zrotation Xrotation Yrotation
                    JOINT LeftHandMiddle1
                    {
                      OFFSET 5.17411 -0.084 0.313895
                      CHANNELS 3 Zrotation Xrotation Yrotation
                      JOINT LeftHandMiddle2
                      {
                        OFFSET 3.94947 0 0
                        CHANNELS 3 Zrotation Xrotation Yrotation
                        JOINT LeftHandMiddle3
                        {
                          OFFSET 2.47579 0 0
                          CHANNELS 3 Zrotation Xrotation Yrotation
                          End Site
                          {
                            OFFSET 1.975 0 0
                          }
                        }
                      }
                    }
                  }
                  JOINT LeftInHandRing
                  {
                    OFFSET 3.36516 0.537895 -0.128947
                    CHANNELS 3 Zrotation Xrotation Yrotation
                    JOINT LeftHandRing1
                    {
                      OFFSET 4.63474 -0.022105 -0.478947
                      CHANNELS 3 Zrotation Xrotation Yrotation
                      JOINT LeftHandRing2
                      {
                        OFFSET 3.44238 0 0
                        CHANNELS 3 Zrotation Xrotation Yrotation
                        JOINT LeftHandRing3
                        {
                          OFFSET 2.3881 0 0
                          CHANNELS 3 Zrotation Xrotation Yrotation
                          End Site
                          {
                            OFFSET 1.857 0 0
                          }
                        }
                      }
                    }
                  }
                  JOINT LeftInHandPinky
                  {
                    OFFSET 3.16105 0.469368 -1.20179
                    CHANNELS 3 Zrotation Xrotation Yrotation
                    JOINT LeftHandPinky1
                    {
                      OFFSET 4.14105 -0.022105 -1.09053
                      CHANNELS 3 Zrotation Xrotation Yrotation
                      JOINT LeftHandPinky2
                      {
                        OFFSET 2.75653 0 0
                        CHANNELS 3 Zrotation Xrotation Yrotation
                        JOINT LeftHandPinky3
                        {
                          OFFSET 1.74189 0 0
                          CHANNELS 3 Zrotation Xrotation Yrotation
                          End Site
                          {
                            OFFSET 1.645 0 0
                          }
                        }
                      }
                    }
                  }
                }
              }
            }
          }
        }
      }
    }
  }
}
MOTION
Frames: 3
Frame Time: 0.00833333
3.000018704415060711e+02 4.400734875570324472e-03 2.104496678712071758e-03 8.069759190424685702e-03 -4.918258889640771646e-03 -2.452404084107206311e-02 1.763076538309826108e-02 1.131146615743324445e-02 1.295055126791628056e-02 -1.254986850297434321e-02 -1.471070027466725612e-02 1.147230558263724089e-02 1.286053136202183105e-03 8.726801237622707277e-03 7.760665065905054776e-03 1.995283846497053915e-03 -3.627316449450773694e-03 6.006373328740619716e-02 5.550207589097522209e-02 6.493071194331052551e-03 -3.254543919954647896e-02 -1.140141422980694985e-02 1.906240784599397275e-02 -2.245209721995115870e-02 3.774653602991783017e-03 4.363246995716937165e-03 7.357671166096278748e-03 1.430465741897516633e-03 1.229563975444934601e-03 3.023443112144933755e-03 2.033647542556855752e-03 2.052269146604946727e-03 4.930643582972219288e-03 2.824713418108472721e-04 7.320572412226452534e-05 2.243573589543510589e-04 3.476590434933237751e-03 -2.349579816665477942e-03 1.888278464710876209e-02 3.092054472045211409e-03 -1.268472500229282304e-02 1.709621059855124039e-02 1.275400453098233036e-02 -8.972456718495997255e-03 -7.525602741423529501e-03 -3.155116481826570479e-02 6.311675504483499344e-02 1.646954452928992008e-03 3.256277690336543684e-01 1.673812261361030257e-03 -1.344065067765720933e-01 5.526693111845291245e-02 1.588772413238199177e-01 -1.269125922407596078e-02 0.000000000000000000e+00 0.000000000000000000e+00 0.000000000000000000e+00 1.131797996978189156e-15 -1.361445098634697684e-15 0.000000000000000000e+00 2.391616010002855999e-15 1.160028178546233255e-15 0.000000000000000000e+00 -1.577608912941074230e-15 -5.172039468530790170e-16 -8.645519580912928208e-16 0.000000000000000000e+00 0.000000000000000000e+00 0.000000000000000000e+00 0.000000000000000000e+00 -6.232244108981491948e-16 1.487751669153952853e-15 0.000000000000000000e+00 3.676039106005921344e-16 -3.095850156343343226e-18 -1.577608912941074230e-15 -5.172039468530790170e-16 -8.645519580912928208e-16 0.000000000000000000e+00 -6.613522030097918800e-16 -3.483026025404512927e-16 0.000000000000000000e+00 4.600279173504938072e-17 5.371621229428247501e-16 0.000000000000000000e+00 3.998913098789243824e-16 -3.314530586749416435e-16 -1.577608912941074230e-15 -5.172039468530790170e-16 -8.645519580912928208e-16 0.000000000000000000e+00 0.000000000000000000e+00 0.000000000000000000e+00 0.000000000000000000e+00 9.838434871274450466e-16 1.635641785003913700e-16 0.000000000000000000e+00 -1.044803096578726792e-15 -1.586705494292243485e-16 -1.577608912941074230e-15 -5.172039468530790170e-16 -8.645519580912928208e-16 0.000000000000000000e+00 0.000000000000000000e+00 0.000000000000000000e+00 0.000000000000000000e+00 4.274013413457460283e-16 -3.030572971776704298e-16 0.000000000000000000e+00 1.219292785793163086e-17 -1.125342482997726076e-15 -1.213031533816241181e-01 -9.659913214255742842e-02 -5.542038134795813920e-02 -4.072539796327170197e-02 1.416923644423110640e-01 8.566413039492869197e-02 1.996345980861659319e-02 -1.530549136040838809e-02 -2.990767999095041499e-02 -2.814572359708713330e-03 1.512158342717232797e-02 3.404064368549983288e-02 0.000000000000000000e+00 0.000000000000000000e+00 0.000000000000000000e+00 8.571687497793859872e-16 -1.781109814025977563e-15 0.000000000000000000e+00 3.993167662180932770e-16 -4.124216440061294926e-15 0.000000000000000000e+00 6.914654233068913155e-17 4.328325032612878181e-16 7.742651355643837138e-18 0.000000000000000000e+00 0.000000000000000000e+00 0.000000000000000000e+00 0.000000000000000000e+00 -6.248995921920600914e-16 -4.690112816133336236e-16 0.000000000000000000e+00 6.307340405636504431e-16 3.580279618964471993e-16 6.914654233068913155e-17 4.328325032612878181e-16 7.742651355643837138e-18 0.000000000000000000e+00 1.664979448979255221e-17 1.126116553726017518e-15 0.000000000000000000e+00 -1.522795802842359500e-15 -4.335632080724845832e-17 0.000000000000000000e+00 2.540150225468635075e-16 5.961572392540879483e-16 6.914654233068913155e-17 4.328325032612878181e-16 7.742651355643837138e-18 0.000000000000000000e+00 0.000000000000000000e+00 0.000000000000000000e+00 0.000000000000000000e+00 -1.002488751875945424e-15 1.025684460232118988e-16 0.000000000000000000e+00 6.041563943498809906e-16 -2.413898847814986784e-16 6.914654233068913155e-17 4.328325032612878181e-16 7.742651355643837138e-18 0.000000000000000000e+00 0.000000000000000000e+00 0.000000000000000000e+00 0.000000000000000000e+00 5.614124378771567065e-16 -4.246596918194460368e-16 0.000000000000000000e+00 -2.767463416346068945e-16 2.444411942442107234e-16
3.000021613410310692e+02 3.560719717854015330e-03 4.621049986795484205e-03 -1.453603477649850588e-03 -1.582882556933188235e-03 5.254668000442146852e-03 5.306208240705766275e-04 -2.783187451921064273e-03 -6.432786883386516080e-03 -1.239766128187360164e-02 -6.196622377561680425e-03 -2.505663900443520949e-03 1.352311899452209379e-02 9.431984906551362652e-03 4.472167513196493964e-03 4.101029369983569262e-02 9.358503345793394573e-03 -8.590446226775863559e-02 -8.860081034898907582e-02 -5.782998365805359225e-02 7.976910784233540164e-02 1.071263615998719731e-03 2.925196656133827525e-02 2.256912463887863693e-03 1.587843312160607933e-04 9.090090974629341097e-03 -2.416757292418995548e-03 1.032879622331228002e-03 2.154580479337105288e-03 1.945207749658547708e-03 6.230550342874333156e-04 3.503357689632866350e-03 3.190991538730635416e-03 -1.036240098772455424e-04 1.264860675065816590e-04 -1.121158926396510686e-05 1.505188691980831328e-03 1.618729072692501499e-04 7.169789530525289695e-03 8.293569387526000206e-04 -6.296585811752711433e-03 1.394013405287713656e-02 9.761294251288864937e-03 -1.376196142383431277e-02 -1.221480080405624828e-02 7.087367844540105183e-03 1.746657751513149004e-02 1.514251707732495178e-01 5.153400159944546699e-01 1.762280382233880061e-02 -3.964560287796037308e-01 1.562717758805416135e-01 4.028810928864519081e-01 4.288567095239683574e-02 0.000000000000000000e+00 0.000000000000000000e+00 0.000000000000000000e+00 4.655005207186853339e-15 5.668517154294981971e-16 0.000000000000000000e+00 2.893626735415675898e-15 2.085524426048445059e-15 0.000000000000000000e+00 -4.219584949222803707e-15 -2.781812206363386855e-16 2.925524895670301287e-16 0.000000000000000000e+00 0.000000000000000000e+00 0.000000000000000000e+00 0.000000000000000000e+00 -2.944647622306708931e-16 1.299815600550997935e-15 0.000000000000000000e+00 8.444577453450676111e-16 2.213492064391108268e-15 -4.219584949222803707e-15 -2.781812206363386855e-16 2.925524895670301287e-16 0.000000000000000000e+00 -1.175028308966741500e-16 -5.031376959653004422e-16 0.000000000000000000e+00 2.957799470411632509e-16 -1.374400811366579502e-16 0.000000000000000000e+00 2.904432940405273550e-16 -5.853383625723283004e-17 -4.219584949222803707e-15 -2.781812206363386855e-16 2.925524895670301287e-16 0.000000000000000000e+00 0.000000000000000000e+00 0.000000000000000000e+00 0.000000000000000000e+00 5.110101869446508572e-16 5.182452366081300911e-16 0.000000000000000000e+00 -3.674800377373022787e-16 -4.011357392582852426e-16 -4.219584949222803707e-15 -2.781812206363386855e-16 2.925524895670301287e-16 0.000000000000000000e+00 0.000000000000000000e+00 0.000000000000000000e+00 0.000000000000000000e+00 5.030210183038538244e-17 4.000692577545838007e-16 0.000000000000000000e+00 -5.987800284004111957e-16 9.608680833941033534e-16 -3.104225266398997693e-02 -1.717974334626863608e-02 -3.295778796164108154e-02 4.972034990890039467e-04 1.754923667044047675e-02 1.983127132553313965e-02 2.612093185238997806e-02 -6.070808877329551476e-03 -8.975519002101594451e-03 -1.739817795778855064e-02 1.068373337266716357e-03 4.679794643898607664e-02 0.000000000000000000e+00 0.000000000000000000e+00 0.000000000000000000e+00 1.822728484396999275e-15 -1.288812817553928915e-15 0.000000000000000000e+00 8.195258984729961037e-17 -1.184820303376621816e-16 0.000000000000000000e+00 2.597934896768764101e-15 7.021465294091486194e-16 -1.249347787881305663e-15 0.000000000000000000e+00 0.000000000000000000e+00 0.000000000000000000e+00 0.000000000000000000e+00 -1.715587811170501592e-16 -1.500652361700981138e-15 0.000000000000000000e+00 -1.720750693643112384e-15 -6.519775018034861617e-16 2.597934896768764101e-15 7.021465294091486194e-16 -1.249347787881305663e-15 0.000000000000000000e+00 7.607098332243035069e-16 -2.518499005249982313e-16 0.000000000000000000e+00 -6.051567498632466724e-16 -3.225386064817836195e-16 0.000000000000000000e+00 5.295956724966827978e-16 3.698162105515076760e-17 2.597934896768764101e-15 7.021465294091486194e-16 -1.249347787881305663e-15 0.000000000000000000e+00 0.000000000000000000e+00 0.000000000000000000e+00 0.000000000000000000e+00 4.301681723737619719e-16 1.599872528658279725e-16 0.000000000000000000e+00 1.401297348704425332e-15 -2.456297779848600930e-16 2.597934896768764101e-15 7.021465294091486194e-16 -1.249347787881305663e-15 0.000000000000000000e+00 0.000000000000000000e+00 0.000000000000000000e+00 0.000000000000000000e+00 4.502971998795558804e-16 -8.231114390812476394e-16 0.000000000000000000e+00 -3.787754836723844818e-17 5.105258983610407748e-16
3.000002585740721202e+02 8.957417717998458501e-04 4.425553796343502030e-03 -7.155242133795633452e-03 3.117276591760077993e-03 2.087158755704365820e-02 -8.646558641785262456e-03 -9.412971010537082503e-03 -1.094831489691757559e-02 -4.278439481791642372e-03 3.682010269935837455e-03 -1.658242495360714996e-02 1.533491258119673920e-02 4.729068293342867692e-03 2.369915529945174331e-03 1.443848585919341870e-02 6.466186311658541491e-03 -7.281810217701720211e-02 -5.684938361759295233e-02 -3.091629443431807844e-02 2.472717127364791254e-02 9.405027614685892295e-03 1.316662769440723503e-02 2.869544029749186709e-02 -1.173029777257437794e-03 1.205260231425334940e-03 1.873672881050797911e-03 2.001369424817934649e-04 2.495934721063162737e-04 1.502530320976724334e-04 -2.377877413337029129e-04 4.024536704958356012e-04 2.442020838525621592e-04 1.074911369223574900e-06 4.499356682113972330e-04 -1.004387540434568683e-04 -4.205221995433819013e-03 1.258858492384351720e-02 -2.501047119321436404e-02 2.345445995009483049e-03 6.832590719369736887e-03 5.540257132404813063e-04 -9.724498920284919273e-03 -4.611697262733721603e-03 -5.000932072744407320e-04 4.492668012453131937e-02 -2.029330273536951793e-02 2.207851394137843870e-01 7.513184918509537014e-02 -6.046568080167282616e-02 -2.633147097932143632e-01 4.306178707056735472e-02 9.687551177254184742e-02 5.532633945629780725e-02 0.000000000000000000e+00 0.000000000000000000e+00 0.000000000000000000e+00 -5.467489929270113386e-16 6.987947233866852771e-16 0.000000000000000000e+00 -1.776546136695826862e-15 -1.224085344132461251e-15 0.000000000000000000e+00 1.606397539669261270e-15 3.076286982676063983e-16 8.314839823921077175e-16 0.000000000000000000e+00 0.000000000000000000e+00 0.000000000000000000e+00 0.000000000000000000e+00 2.639886867282079404e-16 -2.099838939696837611e-15 0.000000000000000000e+00 2.014323898298768111e-16 9.089735460179291609e-16 1.606397539669261270e-15 3.076286982676063983e-16 8.314839823921077175e-16 0.000000000000000000e+00 6.149324358640710723e-17 6.363111989101179189e-16 0.000000000000000000e+00 -3.803316742550012930e-16 -5.129935346751161500e-16 0.000000000000000000e+00 -2.542694738652269739e-16 3.576685204151432502e-16 1.606397539669261270e-15 3.076286982676063983e-16 8.314839823921077175e-16 0.000000000000000000e+00 0.000000000000000000e+00 0.000000000000000000e+00 0.000000000000000000e+00 -6.438823800584946158e-16 4.804089979515235049e-16 0.000000000000000000e+00 8.324400499354988517e-16 -5.145378571194735819e-16 1.606397539669261270e-15 3.076286982676063983e-16 8.314839823921077175e-16 0.000000000000000000e+00 0.000000000000000000e+00 0.000000000000000000e+00 0.000000000000000000e+00 -5.452180897089896669e-16 1.044841268146911600e-16 0.000000000000000000e+00 -1.227288444710493327e-15 1.443611223372192010e-15 1.582011854016272812e-02 3.085213642644080850e-02 -4.165714778957019249e-02 2.367293125088270125e-02 -4.578471395823175555e-02 -1.643663562544445816e-02 8.111119119291737914e-03 2.933935492314731878e-03 3.539490790218375454e-02 -1.177279898636813919e-02 -1.503180793566292681e-02 8.695642203785318436e-03 0.000000000000000000e+00 0.000000000000000000e+00 0.000000000000000000e+00 -1.072141453430971055e-16 1.199657542013355752e-15 0.000000000000000000e+00 -6.958850282865863839e-16 5.372679117820183780e-15 0.000000000000000000e+00 3.767816219113140134e-15 4.555287311116960780e-16 -7.843624342412612995e-16 0.000000000000000000e+00 0.000000000000000000e+00 0.000000000000000000e+00 0.000000000000000000e+00 1.351291981633324032e-15 -4.751635595622852071e-16 0.000000000000000000e+00 -1.779670819894865978e-15 -4.280303134662303814e-16 3.767816219113140134e-15 4.555287311116960780e-16 -7.843624342412612995e-16 0.000000000000000000e+00 5.556267715319632511e-16 -1.655229768141983998e-15 0.000000000000000000e+00 1.059362183964418234e-15 -3.131301631789533451e-16 0.000000000000000000e+00 -6.958603357604577413e-16 -5.720475364607475894e-16 3.767816219113140134e-15 4.555287311116960780e-16 -7.843624342412612995e-16 0.000000000000000000e+00 0.000000000000000000e+00 0.000000000000000000e+00 0.000000000000000000e+00 1.861808360627983446e-15 -1.921720694497712657e-16 0.000000000000000000e+00 -1.323263047367959400e-16 3.817447666727378352e-16 3.767816219113140134e-15 4.555287311116960780e-16 -7.843624342412612995e-16 0.000000000000000000e+00 0.000000000000000000e+00 0.000000000000000000e+00 0.000000000000000000e+00 -5.106944694564316515e-16 1.302285956947998224e-16 0.000000000000000000e+00 8.249087486157160104e-17 4.361870563636572859e-17
